<svg width="47" height="46" viewBox="0 0 47 46" fill="none" xmlns="http://www.w3.org/2000/svg">
<path d="M23.4062 0.5C36.0485 0.5 46.3125 10.565 46.3125 23C46.3125 35.435 36.0485 45.5 23.4062 45.5C10.7641 45.4999 0.5 35.4349 0.5 23C0.5 10.5651 10.7641 0.500093 23.4062 0.5Z" fill="#0084C9" stroke="white"/>
<path fill-rule="evenodd" clip-rule="evenodd" d="M5.58203 36.5009C5.58203 36.5009 7.29484 38.5452 9.14669 40.0009L14.1756 26.1145L15.5336 22.3645L21.2375 6.61452H21.5152L27.2096 22.3645L28.5654 26.1145L32.1398 36.0009H36.6534L23.5985 1.0918H19.1542L5.58203 36.5009Z" fill="white"/>
<path d="M20.582 36.0009V1.0918L32.573 30.0009L35.1192 32.2509H43.7762L41.4145 36.0009H20.582Z" fill="white"/>
</svg>
